<svg width="120" height="120" viewBox="0 0 120 120" fill="none" xmlns="http://www.w3.org/2000/svg"><path d="M101.953 52.076a5.89 5.89 0 00-5.56-3.914 5.892 5.892 0 00-5.539 3.935H78.69v-7.87h7.868a1.967 1.967 0 001.968-1.965v-8.233a5.902 5.902 0 10-3.935 0v6.265H78.69v-3.935c0-1.086-.88-1.967-1.967-1.967h-3.935V24.193a5.902 5.902 0 10-3.934 0v10.199h-7.87V2.985c0-1.086-.88-1.966-1.966-1.967-24.269 0-43.28 17.57-43.28 40 0 10.654 4.23 24.76 11.04 36.812 1.222 2.163 2.818 4.438 4.506 6.847 3.571 5.09 7.545 10.813 7.977 15.796a5.59 5.59 0 00-2.363 4.669 5.846 5.846 0 001.302 3.653 6.063 6.063 0 00-1.805 4.354 5.908 5.908 0 005.901 5.902h33.443a5.94 5.94 0 005.902-5.976v-.064a5.874 5.874 0 00-1.811-4.237 6.075 6.075 0 001.307-3.77 5.642 5.642 0 00-5.902-5.625h-14.25V61.932h3.934v5.902c0 1.086.88 1.967 1.966 1.967h5.902v2.33a5.901 5.901 0 103.934 0v-4.297c0-1.086-.88-1.967-1.966-1.967h-5.902v-3.935h7.868c1.087 0 1.967-.88 1.968-1.966V56.03h12.166a5.891 5.891 0 0011.098-3.955zM86.557 26.523a1.967 1.967 0 110 3.934 1.967 1.967 0 010-3.934zM34.505 82.417c-1.633-2.328-3.175-4.526-4.303-6.524-6.397-11.32-10.53-25.01-10.53-34.875 0-19.619 16.263-35.114 37.377-36.023v13.743a36.57 36.57 0 00-1.625.156 1.967 1.967 0 00-1.687 1.547l-.6 2.85c-.493.118-.985.25-1.477.398l-1.96-2.186a1.964 1.964 0 00-2.236-.497 29.6 29.6 0 00-6.19 3.613 1.967 1.967 0 00-.684 2.184l.903 2.752c-.372.35-.734.712-1.084 1.083l-2.749-.903a1.979 1.979 0 00-2.184.684 29.53 29.53 0 00-3.616 6.192 1.966 1.966 0 00.497 2.236l2.187 1.96a25.02 25.02 0 00-.394 1.462l-3.06.61a1.967 1.967 0 00-1.581 1.93v6.707c0 .938.662 1.746 1.582 1.93l3.059.61c.116.488.248.975.395 1.462l-2.189 1.96a1.97 1.97 0 00-.497 2.236 29.548 29.548 0 003.616 6.192 1.977 1.977 0 002.185.683l2.748-.903c.352.371.713.734 1.084 1.084l-.902 2.747c-.263.8.012 1.677.683 2.184a29.53 29.53 0 006.191 3.618 1.97 1.97 0 002.236-.498l1.961-2.186c.49.148.983.28 1.477.398l.599 2.849a1.967 1.967 0 001.686 1.548c.571.07 1.104.117 1.627.157v21.792H43.11c-.805-5.798-4.911-11.695-8.605-16.962zm6.806-34.255c.013 9.01 6.784 16.578 15.738 17.589v6.765l-.325-1.549a1.968 1.968 0 00-1.577-1.532 21.308 21.308 0 01-3.427-.925 1.965 1.965 0 00-2.13.54l-1.85 2.064a25.498 25.498 0 01-2.962-1.739l.855-2.6a1.969 1.969 0 00-.599-2.116 21.532 21.532 0 01-2.518-2.517 1.978 1.978 0 00-2.114-.595l-2.598.855a25.504 25.504 0 01-1.74-2.963l2.066-1.85a1.97 1.97 0 00.538-2.13 21.43 21.43 0 01-.924-3.427 1.967 1.967 0 00-1.551-1.58l-2.75-.55v-3.48l2.75-.55a1.967 1.967 0 001.551-1.579 21.58 21.58 0 01.924-3.43 1.968 1.968 0 00-.54-2.13l-2.063-1.848a25.848 25.848 0 011.739-2.962l2.599.855c.76.247 1.594.012 2.114-.596a22.017 22.017 0 012.52-2.522 1.966 1.966 0 00.595-2.111l-.853-2.6a25.644 25.644 0 012.96-1.738l1.85 2.063a1.974 1.974 0 002.13.54 21.267 21.267 0 013.428-.924 1.966 1.966 0 001.576-1.531l.326-1.549v6.763c-8.954 1.01-15.725 8.578-15.737 17.589zM57.05 34.549v27.226c-7.518-1.076-12.74-8.044-11.664-15.562A13.752 13.752 0 0157.05 34.549zm20.656 78.6a1.97 1.97 0 01-1.967 1.968H42.295a2.004 2.004 0 01-1.967-2.106 1.969 1.969 0 011.967-1.967h33.443a2.003 2.003 0 011.967 2.105zm-2.47-9.836a1.802 1.802 0 011.967 1.829 1.969 1.969 0 01-1.968 1.967H42.8a2.003 2.003 0 01-1.968-2.105 1.776 1.776 0 011.967-1.691h32.436zm-.48-27.61a1.967 1.967 0 11-.001 3.935 1.967 1.967 0 010-3.935zM70.82 16.687a1.967 1.967 0 110 3.934 1.967 1.967 0 010-3.934zm3.934 41.311h-13.77V38.326h13.77v19.672zm21.64-1.967a1.967 1.967 0 110-3.935 1.967 1.967 0 010 3.935z" fill="#000"/><path d="M77.988 90.941a33.345 33.345 0 00-1.837 3.843l3.658 1.448a29.427 29.427 0 011.624-3.389l-3.445-1.902zm4.425-6.929a119.66 119.66 0 00-2.282 3.381l3.303 2.136c.714-1.102 1.46-2.194 2.209-3.27l-3.23-2.247zm4.476-6.545a91.006 91.006 0 01-2.179 3.26l3.232 2.244a89.397 89.397 0 002.276-3.41l-3.33-2.094zm3.691-6.857a88.65 88.65 0 01-1.768 3.499l3.47 1.855a89.63 89.63 0 001.848-3.66l-3.55-1.694zm3.073-7.22a90.808 90.808 0 01-1.46 3.643l3.622 1.54a97.457 97.457 0 001.52-3.8l-3.682-1.382zm8.64-22.764l-3.934.03.002.362c0 1.097-.051 2.263-.153 3.461l3.921.33c.11-1.307.166-2.583.166-3.791l-.002-.392zm-1.002-8.374l-3.83.895a34 34 0 01.655 3.729l3.907-.465a38.064 38.064 0 00-.732-4.16zm-2.828-7.95l-3.536 1.721a34.39 34.39 0 011.467 3.493l3.706-1.318a37.824 37.824 0 00-1.637-3.896zm-4.5-7.124l-3.081 2.448a35.801 35.801 0 012.2 3.093l3.325-2.102a39.691 39.691 0 00-2.444-3.439zm-5.896-6.003l-2.506 3.031a37.185 37.185 0 012.803 2.573l2.805-2.759c-.985-1-2.02-1.95-3.102-2.845zm-6.96-4.689l-1.87 3.461a39.63 39.63 0 013.268 1.975L84.7 8.656a44.328 44.328 0 00-3.594-2.17zm-7.711-3.264l-1.191 3.75a40.81 40.81 0 013.585 1.323l1.538-3.619a44.214 44.214 0 00-3.932-1.454zm-8.162-1.806l-.503 3.904a42.39 42.39 0 013.774.659l.85-3.843a47.983 47.983 0 00-4.121-.72zM7.869 107.178H3.934v3.935H7.87v-3.935zm0 7.869H3.934v3.935H7.87v-3.935zm3.934-3.934H7.87v3.934h3.934v-3.934zm-7.869 0H0v3.934h3.934v-3.934zM116.066.949h-3.935v3.934h3.935V.95zm0 7.869h-3.935v3.934h3.935V8.818zM120 4.883h-3.934v3.935H120V4.883zm-7.869 0h-3.934v3.935h3.934V4.883z" fill="#000"/></svg>