<svg width="120" height="120" viewBox="0 0 120 120" fill="none" xmlns="http://www.w3.org/2000/svg"><path d="M72.553 76.128a2.351 2.351 0 00-1.011-.07l-.118-.004c3.042-2.973 4.936-7.116 4.936-11.695V41.016a2.344 2.344 0 00-2.344-2.344H56.655c-7.176 0-13.014 5.838-13.014 13.014v12.672c0 4.58 1.894 8.723 4.936 11.695l-.118.005a2.356 2.356 0 00-1.012.07C35.331 77.216 25.802 87.425 25.802 99.82v11.508a2.344 2.344 0 002.344 2.344h63.709a2.344 2.344 0 002.344-2.344V99.82c0-12.395-9.53-22.604-21.646-23.692zm-24.225-21.16v-3.282c0-4.591 3.735-8.327 8.326-8.327h15.018v6.273a5.754 5.754 0 01-5.748 5.747H48.328v-.41zm0 9.39v-4.291h17.596c2.123 0 4.098-.64 5.748-1.732v6.023c0 6.436-5.236 11.672-11.672 11.672-6.436 0-11.672-5.235-11.672-11.671zm17.897 16.36L60 86.943l-6.224-6.225h12.449zm23.286 28.266H30.489v-6.745h19.126a2.344 2.344 0 100-4.687H30.63c1.036-8.712 7.954-15.64 16.66-16.69l11.054 11.053A2.337 2.337 0 0060 92.6c.6 0 1.2-.229 1.657-.686L72.71 80.862c9.45 1.14 16.8 9.205 16.8 18.958v9.164z" fill="#000"/><path d="M61.657 98.238A2.36 2.36 0 0060 97.552c-.616 0-1.221.25-1.657.686a2.361 2.361 0 00-.687 1.657c0 .617.25 1.221.687 1.657a2.36 2.36 0 001.657.687 2.36 2.36 0 001.657-.687 2.36 2.36 0 00.687-1.657 2.36 2.36 0 00-.687-1.657zM60.03 6.328c-4.911 0-8.907 3.995-8.907 8.906 0 4.1 2.786 7.56 6.563 8.591v5.724a2.344 2.344 0 004.688 0v-5.724c3.777-1.031 6.562-4.49 6.562-8.59 0-4.912-3.995-8.907-8.906-8.907zm0 13.125a4.224 4.224 0 01-4.219-4.219 4.224 4.224 0 014.219-4.218 4.224 4.224 0 014.219 4.218 4.224 4.224 0 01-4.22 4.22zm47.052 5.157a8.849 8.849 0 00-6.298-2.61 8.848 8.848 0 00-6.297 2.609c-2.9 2.899-3.376 7.314-1.435 10.715l-4.047 4.048a2.344 2.344 0 003.314 3.314l4.046-4.046a8.853 8.853 0 004.419 1.173 8.849 8.849 0 006.298-2.609 8.85 8.85 0 002.609-6.297 8.85 8.85 0 00-2.609-6.298zm-3.314 9.28a4.224 4.224 0 01-5.966 0 4.224 4.224 0 010-5.966 4.205 4.205 0 012.983-1.233c1.08 0 2.16.41 2.983 1.233a4.191 4.191 0 011.236 2.984 4.191 4.191 0 01-1.236 2.983zm7.326 28.883c-4.1 0-7.56 2.786-8.591 6.563h-5.724a2.344 2.344 0 000 4.687h5.724c1.031 3.778 4.491 6.563 8.591 6.563 4.911 0 8.906-3.995 8.906-8.906 0-4.911-3.995-8.907-8.906-8.907zm0 13.125a4.224 4.224 0 01-4.219-4.218 4.224 4.224 0 014.219-4.22 4.223 4.223 0 014.218 4.22 4.223 4.223 0 01-4.218 4.218zm-21.547-5.876a2.36 2.36 0 00-1.656-.687 2.36 2.36 0 00-1.657.687 2.362 2.362 0 00-.687 1.657c0 .619.25 1.221.687 1.657a2.35 2.35 0 001.657.687 2.35 2.35 0 001.656-.687 2.36 2.36 0 00.687-1.657 2.36 2.36 0 00-.687-1.657zm-66.326-.746h-5.724c-1.032-3.777-4.491-6.562-8.59-6.562C3.994 62.714 0 66.709 0 71.62c0 4.911 3.995 8.906 8.906 8.906 4.1 0 7.56-2.785 8.591-6.562h5.724a2.344 2.344 0 000-4.688zM8.906 75.84a4.224 4.224 0 01-4.219-4.219 4.224 4.224 0 014.22-4.219 4.224 4.224 0 014.218 4.22 4.224 4.224 0 01-4.219 4.218zm21.947-36.693L26.808 35.1a8.851 8.851 0 001.172-4.42 8.848 8.848 0 00-2.609-6.297 8.849 8.849 0 00-6.298-2.609 8.848 8.848 0 00-6.297 2.609c-3.473 3.472-3.473 9.123 0 12.595a8.849 8.849 0 006.298 2.609 8.854 8.854 0 004.419-1.172l4.046 4.045a2.337 2.337 0 001.657.687 2.344 2.344 0 001.657-4.001zm-8.795-5.483h-.001a4.223 4.223 0 01-5.966 0 4.224 4.224 0 010-5.966 4.206 4.206 0 012.983-1.233c1.08 0 2.16.411 2.983 1.233a4.191 4.191 0 011.236 2.984 4.192 4.192 0 01-1.235 2.982z" fill="#000"/></svg>