<svg width="120" height="120" viewBox="0 0 120 120" fill="none" xmlns="http://www.w3.org/2000/svg"><path d="M114.587 19.688H90a1.757 1.757 0 100 3.515h24.587c1.047 0 1.897.85 1.897 1.897v67.69c0 1.047-.85 1.897-1.897 1.897H5.413a1.899 1.899 0 01-1.897-1.897V25.1c0-1.046.85-1.897 1.897-1.897h38.62v3.516H8.79c-.971 0-1.758.786-1.758 1.758v46.445a1.758 1.758 0 103.516 0V30.234h33.486v9.43l-7.525 3.596c-.601.287-1 .908-1 1.586v28.667c0 .678.389 1.295 1 1.587l22.734 10.862c.492.231 1.048.22 1.516 0l12.78-6.107a1.758 1.758 0 10-1.515-3.172l-10.265 4.904V56.816l19.219-9.182v24.771l-2.612 1.247a1.758 1.758 0 001.516 3.173l3.611-1.725c.611-.292 1-.91 1-1.587V44.846c0-.67-.39-1.294-1-1.586l-7.525-3.596v-9.43h33.486v57.422H10.547v-5.234a1.757 1.757 0 10-3.516 0v6.992c0 .971.787 1.758 1.758 1.758h102.422c.971 0 1.758-.787 1.758-1.758V28.477c0-.972-.787-1.758-1.758-1.758H75.967v-3.516H82.5a1.757 1.757 0 100-3.515h-6.533v-3.516h15.761c.972 0 1.758-.787 1.758-1.758v-4.17a5.282 5.282 0 003.516-4.97A5.28 5.28 0 0091.729 0a5.28 5.28 0 00-5.274 5.273 5.282 5.282 0 003.516 4.972v2.411H74.209c-.971 0-1.758.787-1.758 1.758v5.274H61.758v-9.443a5.282 5.282 0 003.515-4.972A5.28 5.28 0 0060 0a5.28 5.28 0 00-5.273 5.273 5.282 5.282 0 003.515 4.972v9.443H47.55v-5.274c0-.971-.787-1.758-1.758-1.758H30.029v-2.411a5.282 5.282 0 003.516-4.972A5.28 5.28 0 0028.27 0a5.28 5.28 0 00-5.273 5.273 5.282 5.282 0 003.516 4.972v4.17c0 .97.786 1.757 1.758 1.757h15.761v3.515H5.413A5.419 5.419 0 000 25.1v67.69a5.419 5.419 0 005.413 5.413h38.11c-.68 6.448-4.945 10.214-6.289 11.25h-7.468a5.28 5.28 0 00-5.274 5.274A5.28 5.28 0 0029.766 120h60.468a5.28 5.28 0 005.274-5.273 5.28 5.28 0 00-5.274-5.274H82.77c-1.326-1.033-5.605-4.832-6.29-11.25h38.107A5.419 5.419 0 00120 92.79V25.1a5.419 5.419 0 00-5.413-5.413zM91.728 3.515c.97 0 1.758.788 1.758 1.757a1.76 1.76 0 01-1.758 1.758 1.76 1.76 0 01-1.757-1.758c0-.97.788-1.757 1.757-1.757zM60 3.516c.97 0 1.758.788 1.758 1.757A1.76 1.76 0 0160 7.031a1.76 1.76 0 01-1.758-1.758c0-.97.789-1.757 1.758-1.757zm-31.729 0c.97 0 1.758.788 1.758 1.757a1.76 1.76 0 01-1.758 1.758 1.76 1.76 0 01-1.757-1.758c0-.97.788-1.757 1.758-1.757zM47.55 30.234h10.693v2.642l-10.693 5.11v-7.752zm31.108 14.612L60 53.76l-18.657-8.913L60 35.933l18.657 8.913zm-39.634 2.788l19.22 9.182v24.771l-19.22-9.182V47.634zm33.428-9.649l-10.693-5.11v-2.64H72.45v7.75zm0-14.782v3.516H61.758v-3.516H72.45zm-14.209 0v3.516H47.55v-3.516h10.693zm33.75 91.524a1.76 1.76 0 01-1.758 1.757H29.766a1.76 1.76 0 01-1.758-1.757c0-.97.788-1.758 1.758-1.758h60.468c.97 0 1.758.788 1.758 1.758zm-14.264-5.274H42.272c2.06-2.407 4.347-6.158 4.785-11.25h25.886c.438 5.092 2.724 8.843 4.785 11.25z" fill="#000"/></svg>